<?xml version="1.0" encoding="utf-8"?>
<!-- Generator: Adobe Illustrator 23.0.1, SVG Export Plug-In . SVG Version: 6.00 Build 0)  -->
<svg version="1.1" id="Layer_1" xmlns="http://www.w3.org/2000/svg" xmlns:xlink="http://www.w3.org/1999/xlink" x="0px" y="0px"
	 viewBox="0 0 451.9 127.8" style="enable-background:new 0 0 451.9 127.8;" xml:space="preserve">
<style type="text/css">
	.st0{display:none;}
	.st1{display:inline;}
	.st2{fill:#FFFFFF;}
	.st3{display:inline;fill:#FFFFFF;}
</style>
<g id="Layer_9" class="st0">
	<g>
		<g class="st1">
			<g>
				<g>
					<path class="st2" d="M62.7,55.1l24.3,41.4V25.3L62.7,55.1z M62.7,55.1l24.3,41.4V25.3L62.7,55.1z M0,0v127.8h127.8V0H0z
						 M95.1,102.5H80.7L57.1,61.4L40.8,80.9v21.6h-8.2V25.3h8.2v44.4l36-44.4h10v0.1l0.1-0.1h8.2C95.1,25.3,95.1,102.5,95.1,102.5z
						 M86.9,96.5V25.3L62.7,55.1L86.9,96.5z M62.7,55.1l24.3,41.4V25.3L62.7,55.1z"/>
				</g>
			</g>
			<g>
				<g>
					<g>
						<path class="st2" d="M86.9,25.3L86.9,25.3L86.9,25.3L86.9,25.3z"/>
					</g>
					<g>
						<polygon class="st2" points="86.9,25.3 86.9,25.3 86.9,25.3 						"/>
					</g>
				</g>
			</g>
		</g>
		<g class="st1">
			<g>
				<path class="st2" d="M446.9,5v117.8H123V5H446.9 M451.9,0H118v127.8h333.9V0L451.9,0z"/>
			</g>
			<g>
				<g>
					<path class="st2" d="M162.4,69.2l-2.3,1.8v6.5h-3.9V45h3.9V67l9-7.2l2.4,2.1l-6.4,5.2l7.3,10.5h-4.6L162.4,69.2z"/>
				</g>
				<g>
					<path class="st2" d="M186,61.8c0.8-0.7,1.7-1.3,2.6-1.7s1.7-0.6,2.4-0.6l-0.2,3.9c-1.3-0.1-2.4,0.2-3.4,0.7s-1.8,1.3-2.4,2.3
						c-0.6,1-0.9,2.1-0.9,3.2v7.9h-3.9V60.2h3.5l0.3,4.1C184.5,63.3,185.2,62.5,186,61.8z"/>
				</g>
				<g>
					<path class="st2" d="M199.7,52.4c0.5-0.4,1-0.6,1.6-0.6s1.2,0.2,1.6,0.6c0.5,0.4,0.7,0.9,0.7,1.5s-0.2,1.1-0.7,1.5
						s-1,0.6-1.6,0.6c-0.6,0-1.2-0.2-1.6-0.6c-0.5-0.4-0.7-0.9-0.7-1.5S199.2,52.8,199.7,52.4z M203.1,60.2v17.4h-3.9V60.2H203.1z"
						/>
				</g>
				<g>
					<path class="st2" d="M239.4,60.9c1,1,1.5,2.2,1.6,3.8v12.9h-3.9V66.1c-0.1-2-1-3.1-2.8-3.2c-1,0-1.9,0.3-2.7,0.9
						s-1.4,1.4-1.9,2.4c-0.4,1-0.7,2-0.7,3.2v8.3h-3.9V66.1c-0.1-2-1-3.1-2.9-3.2c-1,0-1.9,0.3-2.7,0.9c-0.8,0.6-1.4,1.4-1.9,2.4
						c-0.4,1-0.7,2.1-0.7,3.2v8.2h-3.9V60.2h3.5l0.3,3.3c0.7-1.3,1.6-2.2,2.8-2.9c1.2-0.7,2.5-1,4-1c1.4,0,2.6,0.3,3.5,1
						c0.9,0.7,1.6,1.6,1.9,2.7c0.7-1.2,1.6-2,2.8-2.7c1.1-0.7,2.3-1,3.6-1C237.1,59.5,238.4,60,239.4,60.9z"/>
				</g>
				<g>
					<path class="st2" d="M267.3,60.2l-11.2,25.7h-3.9l4-8.9l-8.1-16.8h4.4l5.6,12.4l5.5-12.4C263.7,60.2,267.3,60.2,267.3,60.2z"/>
				</g>
				<g>
					<path class="st2" d="M292.4,45v32.5h-4v-2.7c-0.8,1-1.9,1.8-3.1,2.3c-1.2,0.6-2.5,0.8-4,0.8c-1.6,0-3.1-0.4-4.4-1.2
						c-1.3-0.8-2.3-1.9-3.1-3.3c-0.7-1.4-1.1-3-1.1-4.9c0-1.9,0.4-3.5,1.2-4.9s1.9-2.4,3.2-3.2c1.4-0.7,2.9-1.1,4.7-1.1
						c1.3,0,2.6,0.3,3.8,0.8s2.2,1.3,2.9,2.3V45L292.4,45L292.4,45z M286.4,73.4c1-0.8,1.7-1.9,2-3.3v-3.3c-0.3-1.3-1-2.3-2.1-3.1
						c-1.1-0.8-2.3-1.2-3.7-1.2c-1.1,0-2,0.3-2.9,0.8s-1.6,1.2-2.1,2.1c-0.5,0.9-0.8,1.9-0.8,3.1c0,1.1,0.3,2.1,0.8,3.1
						c0.5,0.9,1.2,1.7,2.1,2.2c0.9,0.5,1.9,0.8,2.9,0.8C284.1,74.6,285.4,74.2,286.4,73.4z"/>
				</g>
				<g>
					<path class="st2" d="M314.7,73.1l1.8,2.9c-0.9,0.6-1.9,1.1-3,1.4s-2.1,0.5-3.1,0.5c-1.9,0-3.6-0.4-5.1-1.2s-2.5-1.9-3.3-3.3
						c-0.8-1.4-1.2-3-1.2-4.7c0-1.7,0.4-3.3,1.3-4.7c0.9-1.4,2-2.5,3.5-3.4c1.5-0.8,3.1-1.2,4.9-1.2c2.3,0,4.2,0.7,5.7,2
						c1.5,1.3,2.6,3.2,3.1,5.6l-13.8,4.8c0.5,0.9,1.2,1.6,2,2c0.9,0.5,1.8,0.7,2.9,0.7C311.9,74.6,313.3,74.1,314.7,73.1z
						 M306.2,64.3c-1,1.1-1.5,2.6-1.5,4.3c0,0.4,0,0.7,0,1l10.1-3.7c-0.4-0.9-1-1.7-1.8-2.3s-1.7-0.9-2.9-0.9
						C308.5,62.6,307.2,63.1,306.2,64.3z"/>
				</g>
				<g>
					<path class="st2" d="M331.2,45v32.5h-3.9V45H331.2z"/>
				</g>
				<g>
					<path class="st2" d="M341.5,52.4c0.5-0.4,1-0.6,1.6-0.6c0.6,0,1.2,0.2,1.6,0.6s0.7,0.9,0.7,1.5s-0.2,1.1-0.7,1.5
						s-1,0.6-1.6,0.6c-0.6,0-1.2-0.2-1.6-0.6c-0.5-0.4-0.7-0.9-0.7-1.5S341.1,52.8,341.5,52.4z M345,60.2v17.4h-3.9V60.2H345z"/>
				</g>
				<g>
					<path class="st2" d="M373.3,60.2v17.5c0,1.6-0.4,3-1.2,4.3c-0.8,1.3-2,2.3-3.5,3.1c-1.5,0.8-3.3,1.1-5.3,1.1
						c-1.8,0-3.3-0.3-4.5-0.9s-2.5-1.5-3.8-2.6l2.3-2.7c1,0.9,1.9,1.6,2.9,2c1,0.5,2,0.7,3.1,0.7c1.9,0,3.4-0.5,4.5-1.4
						c1-0.9,1.6-2.2,1.6-3.7l0-3.3c-0.6,1.1-1.6,2-2.8,2.6c-1.3,0.7-2.7,1-4.3,1c-1.6,0-3.1-0.4-4.4-1.2c-1.3-0.8-2.4-1.9-3.2-3.3
						s-1.2-2.9-1.2-4.7c0-1.8,0.4-3.3,1.2-4.8c0.8-1.4,1.9-2.5,3.3-3.3s2.9-1.2,4.5-1.2c1.5,0,2.9,0.3,4.1,0.9
						c1.3,0.6,2.2,1.3,2.8,2.3l0.3-2.4L373.3,60.2L373.3,60.2z M367.3,73.5c1.1-0.8,1.8-1.9,2.1-3.2v-3.4c-0.4-1.3-1.1-2.3-2.2-3
						c-1.1-0.8-2.4-1.2-3.8-1.2c-1.7,0-3.1,0.6-4.3,1.7c-1.1,1.1-1.7,2.6-1.7,4.3c0,1.1,0.3,2.1,0.8,3.1c0.5,0.9,1.3,1.7,2.2,2.2
						c0.9,0.6,1.9,0.8,3,0.8C364.9,74.8,366.2,74.3,367.3,73.5z"/>
				</g>
				<g>
					<path class="st2" d="M398.1,61c1.1,1,1.6,2.2,1.6,3.8v12.8h-4V66.1c-0.1-1-0.4-1.8-0.9-2.3s-1.3-0.8-2.4-0.9
						c-1,0-1.9,0.3-2.7,0.8s-1.5,1.3-1.9,2.4s-0.7,2.1-0.7,3.4v8.1h-3.9V45h3.8v18.3c0.6-1.2,1.6-2.1,2.8-2.8s2.6-1,4.2-1
						C395.7,59.5,397,60,398.1,61z"/>
				</g>
				<g>
					<path class="st2" d="M415.3,52.5v7.7h4.7v3.1h-4.7v14.2h-4V63.3h-3.2v-3.1h3.2v-7.7L415.3,52.5L415.3,52.5z"/>
				</g>
			</g>
		</g>
	</g>
	<g class="st1">
		<g>
			<g>
				<g>
					<path class="st2" d="M58.9,60.2l10.8,18.3V47L58.9,60.2z M58.9,60.2l10.8,18.3V47L58.9,60.2z M31.2,35.8v56.6h56.6V35.8H31.2z
						 M73.3,81.2h-6.4L56.5,63l-7.2,8.6v9.6h-3.7V47h3.7v19.7l16-19.7h4.4v0l0,0h3.6V81.2z M69.7,78.6V47L58.9,60.2L69.7,78.6z
						 M58.9,60.2l10.8,18.3V47L58.9,60.2z"/>
				</g>
			</g>
			<g>
				<g>
					<g>
						<path class="st2" d="M26.4,19L26.4,19L26.4,19L26.4,19z"/>
					</g>
					<g>
						<polygon class="st2" points="26.5,19 26.4,19.1 26.4,19 						"/>
					</g>
				</g>
			</g>
		</g>
		<g>
			<g>
				<g>
					<path class="st2" d="M116.8,71.7l-2.7,2.2v7.8h-4.7v-39h4.7V69l10.8-8.7l2.9,2.5l-7.7,6.2l8.7,12.6h-5.5L116.8,71.7z"/>
				</g>
				<g>
					<path class="st2" d="M145.1,62.8c1-0.9,2-1.5,3.1-2c1.1-0.5,2.1-0.7,2.9-0.8l-0.2,4.7c-1.5-0.1-2.9,0.2-4.1,0.9
						c-1.2,0.7-2.2,1.6-2.9,2.8s-1,2.5-1,3.8v9.5h-4.7V60.9h4.2l0.4,4.9C143.4,64.7,144.1,63.7,145.1,62.8z"/>
				</g>
				<g>
					<path class="st2" d="M161.5,51.5c0.6-0.5,1.2-0.8,2-0.8s1.4,0.3,1.9,0.8s0.8,1.1,0.8,1.9s-0.3,1.4-0.8,1.9s-1.2,0.8-1.9,0.8
						s-1.4-0.3-2-0.8s-0.9-1.1-0.9-1.9S160.9,52,161.5,51.5z M165.7,60.9v20.8H161V60.9H165.7z"/>
				</g>
				<g>
					<path class="st2" d="M209.1,61.8c1.2,1.1,1.8,2.7,1.9,4.5v15.4h-4.7V68c-0.1-2.4-1.2-3.7-3.3-3.9c-1.2,0-2.3,0.4-3.2,1.1
						c-1,0.7-1.7,1.7-2.2,2.8c-0.5,1.2-0.8,2.4-0.9,3.8v9.9h-4.7V68c-0.1-2.4-1.2-3.7-3.4-3.9c-1.2,0-2.2,0.4-3.2,1.1
						c-1,0.7-1.7,1.7-2.2,2.9c-0.5,1.2-0.8,2.5-0.8,3.8v9.9h-4.7V60.9h4.2l0.4,3.9c0.8-1.5,1.9-2.7,3.3-3.5s3-1.3,4.8-1.3
						c1.7,0,3.1,0.4,4.2,1.2c1.1,0.8,1.9,1.9,2.2,3.2c0.9-1.4,2-2.5,3.3-3.2c1.3-0.8,2.8-1.2,4.3-1.2
						C206.3,60,207.9,60.6,209.1,61.8z"/>
				</g>
				<g>
					<path class="st2" d="M242.6,60.9l-13.4,30.8h-4.6l4.8-10.7l-9.7-20.1h5.3l6.7,14.8l6.6-14.8C238.2,60.9,242.6,60.9,242.6,60.9z
						"/>
				</g>
				<g>
					<path class="st2" d="M272.6,42.7v39h-4.7v-3.3c-1,1.2-2.2,2.1-3.7,2.8c-1.5,0.7-3.1,1-4.8,1c-1.9,0-3.7-0.5-5.3-1.4
						c-1.6-0.9-2.8-2.3-3.7-3.9c-0.9-1.7-1.3-3.7-1.3-5.9c0-2.3,0.5-4.2,1.4-5.9s2.2-2.9,3.9-3.8c1.6-0.9,3.5-1.3,5.6-1.3
						c1.6,0,3.1,0.3,4.5,1c1.5,0.7,2.6,1.5,3.5,2.7v-21H272.6z M265.4,76.7c1.3-1,2.1-2.3,2.4-3.9v-3.9c-0.4-1.5-1.3-2.7-2.6-3.7
						c-1.3-1-2.8-1.4-4.5-1.4c-1.3,0-2.5,0.3-3.5,0.9c-1.1,0.6-1.9,1.5-2.6,2.6c-0.6,1.1-1,2.3-1,3.7c0,1.3,0.3,2.6,1,3.7
						c0.6,1.1,1.5,2,2.6,2.6s2.3,1,3.5,1C262.6,78.2,264.2,77.7,265.4,76.7z"/>
				</g>
				<g>
					<path class="st2" d="M299.3,76.4l2.2,3.5c-1.1,0.7-2.3,1.3-3.6,1.7s-2.5,0.6-3.8,0.6c-2.3,0-4.3-0.5-6.1-1.4
						c-1.7-1-3.1-2.3-4-3.9c-0.9-1.7-1.4-3.6-1.4-5.7c0-2,0.5-3.9,1.5-5.6c1-1.7,2.4-3,4.2-4c1.8-1,3.7-1.5,5.8-1.5
						c2.7,0,5,0.8,6.8,2.4c1.8,1.6,3.1,3.8,3.8,6.7l-16.5,5.8c0.6,1,1.4,1.8,2.4,2.4c1,0.6,2.2,0.9,3.5,0.9
						C296,78.2,297.7,77.6,299.3,76.4z M289.1,65.8c-1.2,1.3-1.9,3.1-1.9,5.1c0,0.5,0,0.9,0,1.2l12.1-4.5c-0.5-1.1-1.2-2.1-2.1-2.8
						c-0.9-0.7-2.1-1.1-3.5-1.1C292,63.8,290.4,64.4,289.1,65.8z"/>
				</g>
				<g>
					<path class="st2" d="M319.1,42.7v39h-4.7v-39H319.1z"/>
				</g>
				<g>
					<path class="st2" d="M331.5,51.5c0.6-0.5,1.2-0.8,2-0.8s1.4,0.3,1.9,0.8s0.8,1.1,0.8,1.9s-0.3,1.4-0.8,1.9s-1.2,0.8-1.9,0.8
						s-1.4-0.3-2-0.8c-0.6-0.5-0.9-1.1-0.9-1.9S330.9,52,331.5,51.5z M335.7,60.9v20.8H331V60.9H335.7z"/>
				</g>
				<g>
					<path class="st2" d="M369.6,60.9v21c0,1.9-0.5,3.6-1.5,5.2s-2.4,2.8-4.1,3.7s-3.9,1.4-6.3,1.4c-2.1,0-3.9-0.3-5.5-1.1
						c-1.5-0.7-3.1-1.7-4.6-3.1l2.8-3.2c1.1,1.1,2.3,1.9,3.4,2.4s2.4,0.8,3.8,0.8c2.3,0,4.1-0.6,5.4-1.7c1.3-1.1,1.9-2.6,1.9-4.5
						l0-3.9c-0.8,1.3-1.9,2.4-3.4,3.1c-1.5,0.8-3.2,1.2-5.2,1.2c-1.9,0-3.7-0.5-5.3-1.5s-2.9-2.3-3.9-4s-1.4-3.5-1.4-5.6
						c0-2.1,0.5-4,1.5-5.7c1-1.7,2.3-3,4-4c1.7-1,3.5-1.5,5.4-1.5c1.8,0,3.4,0.3,4.9,1.1c1.5,0.7,2.6,1.6,3.4,2.7l0.4-2.9
						L369.6,60.9L369.6,60.9z M362.3,76.9c1.3-1,2.2-2.3,2.6-3.8v-4.1c-0.5-1.5-1.4-2.7-2.7-3.7c-1.3-0.9-2.8-1.4-4.5-1.4
						c-2,0-3.8,0.7-5.1,2s-2.1,3.1-2.1,5.1c0,1.3,0.3,2.6,1,3.7c0.6,1.1,1.5,2,2.6,2.6c1.1,0.7,2.3,1,3.6,1
						C359.5,78.3,361,77.9,362.3,76.9z"/>
				</g>
				<g>
					<path class="st2" d="M399.2,61.8c1.3,1.2,1.9,2.7,2,4.5v15.4h-4.7V67.9c-0.1-1.2-0.4-2.1-1.1-2.8c-0.6-0.7-1.6-1-2.9-1.1
						c-1.2,0-2.3,0.3-3.3,1c-1,0.7-1.7,1.6-2.3,2.8c-0.5,1.2-0.8,2.6-0.8,4v9.8h-4.7v-39h4.6v21.9c0.8-1.4,1.9-2.5,3.3-3.3
						c1.5-0.8,3.1-1.3,5-1.3C396.4,60.1,398,60.7,399.2,61.8z"/>
				</g>
				<g>
					<path class="st2" d="M419.8,51.8V61h5.7v3.7h-5.7v17.1h-4.7V64.7h-3.8v-3.7h3.8v-9.2C415.1,51.7,419.8,51.7,419.8,51.8z"/>
				</g>
			</g>
		</g>
	</g>
</g>
<g class="st0">
	<path class="st3" d="M304.9,86c-0.2,0.6-0.4,1.1-0.6,1.7c-2.2,5.6-6.3,9.3-11.8,11.5c-0.6,0.2-1.3,0.3-1.9,0.3c-2.2,0-4.5,0-6.7,0
		c-0.3,0-0.5,0-1,0c1.2-0.7,2.2-1.2,3.1-1.9c1.9-1.5,3.9-2.8,5.5-4.5c4.5-4.9,5.3-10.7,3.1-17c-1-2.7-2.4-5.2-4.1-7.6
		c-2.7-3.8-5.4-7.5-8-11.4c-1.9-2.9-3-6.2-3.1-9.7c-0.2-6.6,2.8-11.6,8.1-15.3c2.8-2,6-3.1,9.5-3c0.6,0,1.1-0.1,1.7-0.1
		c1.3,0,2.5,0,3.8,0c-0.3,0.2-0.6,0.4-0.9,0.6c-1.9,1.2-4,2.3-5.8,3.7c-6.7,5.1-8.7,12.5-5.6,20.3c1.3,3.4,3.4,6.4,5.5,9.3
		c2.1,2.9,4.2,5.8,6.2,8.8c1.4,2.1,2.3,4.5,3,7C304.9,81,304.9,83.5,304.9,86z"/>
	<path class="st3" d="M223.3,29c0.3,0,0.7,0.1,1,0.1c2.6,0,5.2,0,7.9,0c0,23.5,0,46.9,0,70.3c-3.1,0-6.2,0-9.4,0c0-0.4,0-0.7,0-1.1
		c0-23.1,0-46.1,0-69.2c0-0.1,0-0.2,0-0.2C223,29,223.2,29,223.3,29z"/>
	<path class="st3" d="M333.1,60.8c0.6,0,1.3,0,1.9,0c4.7,0,9.4,0,14.2,0c0,1.1,0,2.1,0,3.2c-5.6,0-11.2,0-16.9,0c0,0,0,0,0,0
		c0-1.1,0-2.1,0-3.2c0,0,0,0,0,0C332.6,60.8,332.9,60.8,333.1,60.8z"/>
	<path class="st3" d="M349.2,29c0.3,0,0.7,0.1,1,0.1c2.6,0,5.2,0,7.9,0c0,23.5,0,46.9,0,70.3c-3.1,0-6.2,0-9.4,0c0-0.4,0-0.7,0-1.1
		c0-23.1,0-46.1,0-69.2c0-0.1,0-0.2,0-0.2C348.9,29,349.1,29,349.2,29z"/>
	<path class="st3" d="M150.1,64.7c1.7-0.8,3.3-1.6,5-2.4c3.1-1.5,5.9-3.5,8-6.2c4.6-5.8,4.4-13.7-0.5-19.2c-2-2.3-4.4-4-7.1-5.4
		c-1.5-0.8-3.1-1.5-4.6-2.2c0,0,0-0.1,0.1-0.1c3.5,0.1,7-0.2,10.4,0.4c8,1.3,15.7,8.9,14.3,19.3c-0.6,4.3-2.8,7.7-6.1,10.4
		c-2.7,2.2-5.9,3.6-9,5.1c-0.3,0.1-0.6,0.3-1,0.5c5.4,11.5,10.7,23.1,16.1,34.7c-0.4,0-0.6,0-0.9,0c-2.7,0-5.3,0-8,0
		c-0.3,0-0.7-0.2-0.8-0.4c-5.2-11.3-10.5-22.5-15.7-33.8C150.3,65.1,150.2,65,150.1,64.7z"/>
	<path class="st3" d="M93.6,29.2c3.1,0,6.2,0,9.3,0c0,23.4,0,46.8,0,70.3c-3.1,0-6.2,0-9.3,0C93.6,76.1,93.6,52.7,93.6,29.2z"/>
</g>
<g>
	<g>
		<path class="st2" d="M350.9,83.4c-0.2,0.5-0.3,0.9-0.5,1.4c-1.8,4.7-5.2,7.8-9.8,9.6c-0.5,0.2-1.1,0.3-1.6,0.3c-1.9,0-3.7,0-5.6,0
			c-0.2,0-0.4,0-0.9,0c1-0.6,1.8-1,2.6-1.6c1.6-1.2,3.3-2.3,4.6-3.8c3.8-4.1,4.5-8.9,2.6-14.1c-0.8-2.3-2-4.4-3.4-6.3
			c-2.2-3.2-4.5-6.3-6.7-9.5c-1.6-2.4-2.5-5.2-2.6-8.1c-0.2-5.5,2.4-9.7,6.7-12.8c2.4-1.7,5-2.6,7.9-2.5c0.5,0,1-0.1,1.4-0.1
			c1.1,0,2.1,0,3.2,0c-0.3,0.2-0.5,0.3-0.8,0.5c-1.6,1-3.3,1.9-4.8,3c-5.6,4.2-7.2,10.4-4.7,16.9c1.1,2.8,2.8,5.3,4.6,7.8
			c1.7,2.4,3.5,4.8,5.1,7.3c1.2,1.8,1.9,3.8,2.5,5.8C350.9,79.3,350.9,81.4,350.9,83.4z"/>
		<path class="st2" d="M282.9,35.9c0.3,0,0.6,0.1,0.9,0.1c2.2,0,4.4,0,6.6,0c0,19.6,0,39.1,0,58.7c-2.6,0-5.2,0-7.8,0
			c0-0.3,0-0.6,0-0.9c0-19.2,0-38.5,0-57.7c0-0.1,0-0.1,0-0.2C282.6,35.9,282.7,35.9,282.9,35.9z"/>
		<path class="st2" d="M374.5,62.4c0.5,0,1,0,1.6,0c3.9,0,7.8,0,11.8,0c0,0.9,0,1.8,0,2.7c-4.7,0-9.3,0-14.1,0c0,0,0,0,0,0
			c0-0.9,0-1.8,0-2.6c0,0,0,0,0,0C374,62.4,374.2,62.4,374.5,62.4z"/>
		<path class="st2" d="M387.9,35.9c0.3,0,0.6,0.1,0.9,0.1c2.2,0,4.4,0,6.6,0c0,19.6,0,39.1,0,58.7c-2.6,0-5.2,0-7.8,0
			c0-0.3,0-0.6,0-0.9c0-19.2,0-38.5,0-57.7c0-0.1,0-0.1,0-0.2C387.6,35.9,387.8,35.9,387.9,35.9z"/>
		<path class="st2" d="M221.8,65.7c1.4-0.7,2.8-1.3,4.1-2c2.6-1.3,4.9-2.9,6.7-5.2c3.8-4.8,3.6-11.4-0.4-16.1
			c-1.7-1.9-3.7-3.3-5.9-4.5c-1.3-0.6-2.5-1.2-3.8-1.9c0,0,0-0.1,0-0.1c2.9,0.1,5.9-0.1,8.7,0.3c6.6,1.1,13.1,7.4,12,16.1
			c-0.5,3.6-2.3,6.4-5.1,8.7c-2.3,1.8-4.9,3-7.5,4.2c-0.2,0.1-0.5,0.2-0.8,0.4c4.5,9.6,8.9,19.2,13.5,28.9c-0.3,0-0.5,0-0.7,0
			c-2.2,0-4.5,0-6.7,0c-0.2,0-0.6-0.2-0.7-0.4c-4.4-9.4-8.7-18.8-13.1-28.2C221.9,66,221.9,65.9,221.8,65.7z"/>
		<path class="st2" d="M174.6,36.1c2.6,0,5.2,0,7.8,0c0,19.6,0,39.1,0,58.6c-2.6,0-5.2,0-7.8,0C174.6,75.2,174.6,55.6,174.6,36.1z"
			/>
	</g>
	<g>
		<path class="st2" d="M58.6,23.2c8.6,1,16.8,3.2,24.6,7c5.2,2.5,10.1,5.6,14.6,9.2c0.8,0.7,1.3,0.7,2.2,0
			c11.2-9.3,24.4-14.1,38.7-16.2c1.6-0.2,1.7-0.1,1.5,1.4c-2,14.3-6.9,27.5-16.2,38.8c-0.6,0.7-0.7,1.2,0,1.9
			c9,10.8,13.9,23.4,16,37.1c0.5,3.4,0.5,3.5-2.9,2.9c-13-2.2-25.2-6.4-35.7-14.7c-2.5-1.9-2.5-2-5,0c-10.6,8.3-22.7,12.8-35.8,14.7
			c-3,0.5-3,0.4-2.6-2.5c1.8-13.9,7.1-26.3,15.9-37.3c0.8-1,0.7-1.5,0-2.4c-8.9-10.8-13.7-23.3-15.8-37c-0.1-0.7-0.2-1.3-0.3-2
			C57.4,23.4,57.7,23,58.6,23.2z M132.4,30.5c-0.3,0.1-0.6,0.1-0.8,0.2c-6.9,1.6-13.4,4.2-19.5,7.7c-4.1,2.4-7.8,5.2-11.3,8.4
			c-0.3,0.2-0.7,0.4-0.5,0.9c0.1,0.4,0.6,0.3,0.9,0.3c0.6,0.1,1.2,0.2,1.8,0.3c6.7,1.6,11.7,7.3,12.5,14.1c0,0.3-0.1,0.8,0.3,0.9
			c0.4,0.1,0.6-0.3,0.8-0.5c0.2-0.2,0.3-0.3,0.5-0.5c7.3-8.2,12.3-17.6,15.2-28.1c0.3-1,0.5-2,0.7-2.9
			C132.9,30.9,133,30.4,132.4,30.5z M133,98.7c-0.1-0.4-0.1-0.6-0.1-0.8c-0.1-0.5-0.2-1-0.4-1.5c-2.3-9.5-6.5-18.1-12.5-25.9
			c-0.6-0.8-1.1-1.4-2.1-0.3c-2.5,2.6-5.5,4.8-8.3,7.2c-2.5,2.1-5.4,3.4-8.7,3.8c-0.3,0-0.7-0.1-0.9,0.3c-0.1,0.3,0.2,0.5,0.4,0.7
			c0.3,0.3,0.6,0.5,0.8,0.8c5.9,5.5,12.7,9.4,20.1,12.3C125.2,96.7,128.9,97.9,133,98.7z M81.8,63.4c0.6-0.1,0.5-0.5,0.5-0.8
			c0.3-3.4,1.8-6.3,3.9-9c2.3-2.8,4.6-5.7,7.1-8.3c0.7-0.7,0.7-1.1-0.1-1.7c-8.2-6.4-17.3-10.7-27.5-13c-1-0.2-1.2,0-0.9,0.9
			c2.7,11.8,8.1,22.2,16.2,31.2C81.4,63,81.6,63.2,81.8,63.4z M65.3,98.6c0.2,0,0.3-0.1,0.4-0.1c12-2.5,22.4-8.3,31.6-16.4
			c0.2-0.2,0.5-0.4,0.4-0.7c-0.1-0.4-0.5-0.3-0.9-0.3c-2.9-0.3-5.6-1.4-7.9-3.2c-3.1-2.4-6.2-4.8-9-7.7c-0.9-1-1.4-0.8-2.2,0.2
			c-3.8,4.9-6.9,10.3-9.3,16C67,90,65.8,93.7,65,97.5C64.9,97.9,64.3,98.6,65.3,98.6z M98.7,54c-5.8,0-10.5,4.8-10.5,10.8
			c0,5.7,4.8,10.4,10.7,10.4c5.8,0,10.5-4.7,10.5-10.5C109.5,58.6,104.8,54,98.7,54z"/>
	</g>
</g>
</svg>
